<svg width="26" height="30" viewBox="0 0 26 30" fill="none" xmlns="http://www.w3.org/2000/svg">
<path d="M12.5308 6.28678C12.5713 5.02797 12.9181 3.17357 14.1248 1.95531C15.245 0.82447 16.6086 0.273325 17.4579 0.0213623C17.7858 -0.0759107 18.1004 0.171339 18.0842 0.51297C18.0273 1.71802 17.7105 3.51543 16.8929 4.47834C16.1222 5.38604 14.8825 6.58972 13.0666 6.79224C12.7693 6.82539 12.5211 6.58569 12.5308 6.28678Z" fill="white"/>
<path d="M15.6402 29.3272C16.5122 29.6612 17.3938 29.9989 18.1918 29.9989C19.8987 29.9989 24.8691 26.0606 25.0482 21.9703C25.0573 21.7602 24.9319 21.5726 24.7484 21.4699C23.4841 20.7625 21.4195 19.0008 21.3476 16.438C21.2639 13.4513 22.7634 11.0791 23.8984 10.0978C24.1538 9.87696 24.2415 9.48755 24.0135 9.23852C22.9809 8.11084 20.9035 6.5597 19.0082 6.59778C17.6292 6.62548 16.3868 7.13914 15.3206 7.57991C14.5027 7.91807 13.7885 8.21334 13.196 8.21334C12.6349 8.21334 11.9612 7.91997 11.188 7.58326C10.1468 7.12982 8.92504 6.59778 7.55453 6.59778C5.0159 6.59778 1.13546e-05 8.7029 0 16.8297C-6.01929e-06 21.1378 4.44743 30.1132 8.20032 29.9989C9.0107 29.9989 9.87675 29.6634 10.7361 29.3304C11.5824 29.0025 12.4222 28.6771 13.196 28.6771C13.9432 28.6771 14.7871 29.0004 15.6402 29.3272Z" fill="white"/>
</svg>
