<svg width="28" height="13" viewBox="0 0 28 13" fill="none" xmlns="http://www.w3.org/2000/svg">
<path fill-rule="evenodd" clip-rule="evenodd" d="M21 1.05509H4.00001C2.37358 1.05509 1.0551 2.37357 1.0551 4V9C1.0551 10.6264 2.37358 11.9449 4.00002 11.9449H21C22.6264 11.9449 23.9449 10.6264 23.9449 9V4C23.9449 2.37357 22.6264 1.05509 21 1.05509ZM4.00001 0C1.79088 0 1.52588e-05 1.79086 1.52588e-05 4V9C1.52588e-05 11.2091 1.79088 13 4.00002 13H21C23.2092 13 25 11.2091 25 9V4C25 1.79086 23.2092 0 21 0H4.00001ZM26 9.22034C26.8491 8.86291 27.4012 8.0314 27.4012 7.11017C27.4012 6.18894 26.8491 5.35744 26 5V9.22034ZM4.00002 2C2.89545 2 2.00002 2.89543 2.00002 4V9C2.00002 10.1046 2.89545 11 4.00001 11H21C22.1046 11 23 10.1046 23 9V4C23 2.89543 22.1046 2 21 2H4.00002Z" fill="white"/>
</svg>
