<svg width="40" height="40" viewBox="0 0 40 40" fill="none" xmlns="http://www.w3.org/2000/svg">
<path fill-rule="evenodd" clip-rule="evenodd" d="M4.67282 13.9222C4.20592 18.2604 4.22673 23.2637 4.87644 27.5842C5.23593 29.9749 7.18705 31.8076 9.5955 32.017L12.1126 32.2358C17.361 32.692 22.6391 32.692 27.8875 32.2358L30.4045 32.017C32.813 31.8076 34.7641 29.9749 35.1236 27.5842C35.7733 23.2637 35.7941 18.2606 35.3272 13.9225C35.2669 13.4195 35.199 12.9173 35.1236 12.4159C34.7641 10.0252 32.813 8.19246 30.4045 7.9831L27.8875 7.76429C22.6391 7.30806 17.361 7.30806 12.1126 7.7643L9.5955 7.9831C7.18705 8.19246 5.23593 10.0252 4.87644 12.4159C4.80105 12.9172 4.73318 13.4194 4.67282 13.9222ZM12.3291 10.2549C17.4334 9.81119 22.5666 9.81119 27.671 10.2549L30.188 10.4737C31.4452 10.583 32.4637 11.5397 32.6514 12.7876C32.6709 12.9172 32.6898 13.0469 32.7083 13.1766L23.4399 18.3257C21.3006 19.5142 18.6993 19.5142 16.56 18.3257L7.29175 13.1766C7.31019 13.0469 7.32915 12.9172 7.34864 12.7876C7.5363 11.5397 8.55478 10.583 9.812 10.4737L12.3291 10.2549ZM33.0142 15.8665C33.3375 19.6461 33.2165 23.4542 32.6514 27.2125C32.4637 28.4604 31.4452 29.4171 30.188 29.5264L27.671 29.7452C22.5666 30.1889 17.4334 30.1889 12.3291 29.7452L9.812 29.5264C8.55479 29.4171 7.5363 28.4604 7.34864 27.2125C6.78349 23.4542 6.66256 19.6461 6.98584 15.8666L15.3459 20.511C18.2403 22.119 21.7596 22.119 24.654 20.511L33.0142 15.8665Z" fill="#3B3F46"/>
</svg>
