<svg width="18" height="12" viewBox="0 0 18 12" fill="none" xmlns="http://www.w3.org/2000/svg">
<path d="M10 3C10 2.44772 10.4477 2 11 2H12C12.5523 2 13 2.44772 13 3V11C13 11.5523 12.5523 12 12 12H11C10.4477 12 10 11.5523 10 11V3Z" fill="white"/>
<path d="M15 1C15 0.447715 15.4477 0 16 0H17C17.5523 0 18 0.447715 18 1V11C18 11.5523 17.5523 12 17 12H16C15.4477 12 15 11.5523 15 11V1Z" fill="white"/>
<path d="M5.00002 6.5C5.00002 5.94772 5.44773 5.5 6.00002 5.5H7.00002C7.5523 5.5 8.00002 5.94772 8.00002 6.5V11C8.00002 11.5523 7.5523 12 7.00002 12H6.00002C5.44773 12 5.00002 11.5523 5.00002 11V6.5Z" fill="white"/>
<path d="M1.52588e-05 9C1.52588e-05 8.44772 0.447731 8 1.00002 8H2.00002C2.5523 8 3.00002 8.44772 3.00002 9V11C3.00002 11.5523 2.5523 12 2.00002 12H1.00002C0.44773 12 1.52588e-05 11.5523 1.52588e-05 11V9Z" fill="white"/>
</svg>
