<svg width="40" height="40" viewBox="0 0 40 40" fill="none" xmlns="http://www.w3.org/2000/svg">
<path d="M35.965 12.7579C36.1983 11.9829 35.965 11.4146 34.8617 11.4146H31.2067C30.2767 11.4146 29.8517 11.9062 29.6183 12.4462C29.6183 12.4462 27.76 16.9779 25.1267 19.9162C24.2767 20.7712 23.8883 21.0412 23.425 21.0412C23.1933 21.0412 22.8567 20.7712 22.8567 19.9962V12.7579C22.8567 11.8279 22.5883 11.4146 21.8133 11.4146H16.07C15.49 11.4146 15.14 11.8446 15.14 12.2546C15.14 13.1346 16.4567 13.3379 16.5917 15.8179V21.1979C16.5917 22.3762 16.38 22.5912 15.9133 22.5912C14.675 22.5912 11.6617 18.0429 9.87334 12.8362C9.52501 11.8246 9.17334 11.4162 8.24001 11.4162H4.58668C3.54168 11.4162 3.33334 11.9079 3.33334 12.4479C3.33334 13.4179 4.57168 18.2179 9.10168 24.5662C12.1217 28.9012 16.3733 31.2512 20.2467 31.2512C22.5683 31.2512 22.855 30.7295 22.855 29.8295V26.5529C22.855 25.5095 23.0767 25.2996 23.8117 25.2996C24.3517 25.2996 25.2817 25.5729 27.45 27.6612C29.9267 30.1379 30.3367 31.2496 31.7283 31.2496H35.3817C36.425 31.2496 36.9467 30.7279 36.6467 29.6979C36.3183 28.6729 35.135 27.1812 33.565 25.4162C32.7117 24.4095 31.4367 23.3262 31.0483 22.7846C30.5067 22.0862 30.6633 21.7779 31.0483 21.1579C31.05 21.1596 35.5017 14.8896 35.965 12.7579V12.7579Z" fill="white"/>
</svg>
