<svg width="17" height="12" viewBox="0 0 17 12" fill="none" xmlns="http://www.w3.org/2000/svg">
<path fill-rule="evenodd" clip-rule="evenodd" d="M8.50048 2.58753C10.967 2.58764 13.3393 3.55505 15.1269 5.28982C15.2615 5.42375 15.4767 5.42206 15.6092 5.28603L16.896 3.96045C16.9631 3.89146 17.0006 3.798 17 3.70076C16.9995 3.60353 16.961 3.51052 16.893 3.44234C12.2011 -1.14745 4.79909 -1.14745 0.107178 3.44234C0.0392126 3.51047 0.000649738 3.60345 2.30181e-05 3.70069C-0.000603702 3.79792 0.0367574 3.89141 0.103839 3.96045L1.39098 5.28603C1.52347 5.42226 1.7388 5.42396 1.87333 5.28982C3.66117 3.55494 6.03368 2.58752 8.50048 2.58753ZM8.53593 6.67235C9.89114 6.67227 11.198 7.18644 12.2025 8.11497C12.3384 8.24674 12.5525 8.24389 12.6849 8.10853L13.9702 6.78295C14.0379 6.71342 14.0754 6.61909 14.0744 6.52108C14.0735 6.42306 14.034 6.32954 13.965 6.26142C10.9059 3.35683 6.16854 3.35683 3.10946 6.26142C3.04036 6.32953 3.00094 6.42311 3.00003 6.52115C2.99912 6.6192 3.03681 6.71352 3.10464 6.78295L4.38955 8.10853C4.522 8.24389 4.73603 8.24674 4.8719 8.11497C5.8758 7.18706 7.18161 6.67293 8.53593 6.67235ZM11.1496 9.34267C11.1515 9.44096 11.1137 9.53573 11.0449 9.60459L8.82167 11.8948C8.75649 11.9621 8.66764 12 8.57492 12C8.48221 12 8.39336 11.9621 8.32818 11.8948L6.10454 9.60459C6.03585 9.53568 5.99806 9.44088 6.00009 9.34259C6.00213 9.2443 6.04381 9.15123 6.1153 9.08534C7.53516 7.8595 9.61468 7.8595 11.0345 9.08534C11.106 9.15128 11.1476 9.24438 11.1496 9.34267Z" fill="white"/>
</svg>
